<?xml version="1.0" standalone="no"?>
<!DOCTYPE svg PUBLIC "-//W3C//DTD SVG 20010904//EN"
 "http://www.w3.org/TR/2001/REC-SVG-20010904/DTD/svg10.dtd">
<svg version="1.0" xmlns="http://www.w3.org/2000/svg"
 width="300.000000pt" height="152.000000pt" viewBox="0 0 300.000000 152.000000"
 preserveAspectRatio="xMidYMid meet">

<g transform="translate(0.000000,152.000000) scale(0.100000,-0.100000)"
fill="#000000" stroke="none">
<path d="M1572 1305 c-49 -27 -48 -35 2 -35 40 0 47 3 42 16 -3 9 -6 20 -6 25
0 12 -9 10 -38 -6z"/>
<path d="M73 1285 c2 -27 6 -30 34 -30 18 -1 35 5 37 12 4 9 -3 11 -24 6 -25
-4 -31 -1 -40 18 -9 23 -10 23 -7 -6z"/>
<path d="M2615 1270 c-9 -16 -23 -31 -33 -32 -31 -2 -67 3 -76 12 -5 5 -15 2
-23 -6 -15 -14 -79 -14 -103 1 -6 3 -10 2 -10 -4 0 -6 -13 -6 -37 1 -21 6 -61
8 -90 6 -29 -3 -53 -1 -53 3 0 5 -11 4 -25 -1 -14 -5 -25 -6 -25 -1 0 5 -19 4
-42 -1 -59 -14 -117 -17 -124 -7 -3 5 -10 9 -15 9 -6 0 -7 -5 -3 -11 5 -8 -1
-10 -19 -7 -16 3 -31 0 -38 -8 -12 -15 6 -19 59 -14 22 2 23 -1 17 -30 l-7
-31 146 3 c114 2 149 0 155 -10 6 -10 49 -15 167 -18 88 -2 237 -7 332 -10
l174 -6 -7 -92 c-11 -158 -35 -439 -38 -442 -1 -1 -182 -7 -402 -13 -220 -6
-460 -14 -532 -17 l-133 -6 0 50 c0 47 2 50 22 44 17 -4 20 -2 15 11 -4 10 -2
17 3 17 6 0 10 -6 10 -14 0 -8 5 -18 11 -21 7 -5 9 5 7 26 -3 32 -5 34 -35 31
-18 -2 -33 1 -33 7 0 5 17 12 38 14 l37 4 -37 1 c-33 2 -38 5 -36 25 2 19 7
22 35 19 20 -3 33 0 33 7 0 6 -11 11 -24 11 -13 0 -31 3 -40 6 -14 5 -16 -4
-16 -61 0 -50 3 -64 13 -59 8 5 8 2 -2 -9 -10 -12 -12 -37 -9 -87 3 -38 2 -70
-2 -70 -4 0 -8 -64 -9 -142 -1 -78 -4 -145 -7 -149 -2 -4 0 -10 6 -14 6 -4 10
7 10 26 l0 33 29 -28 c45 -44 56 -26 11 19 -33 34 -39 47 -40 83 0 23 4 42 9
42 14 0 23 32 11 44 -5 5 -10 27 -10 48 0 34 3 38 26 38 l26 0 -7 -80 c-5 -56
-4 -80 4 -80 7 0 11 31 11 90 0 53 4 90 10 90 6 0 10 -5 10 -10 0 -7 16 -9 40
-6 37 5 40 3 40 -20 0 -24 2 -24 85 -24 53 0 85 -4 85 -11 0 -5 -5 -7 -10 -4
-15 9 -25 -24 -11 -38 6 -6 11 -26 11 -44 0 -18 5 -33 10 -33 6 0 9 35 8 88 0
49 2 94 6 100 14 23 27 12 24 -19 l-3 -32 99 2 c55 1 103 4 107 7 4 2 10 0 14
-6 3 -5 1 -10 -4 -10 -13 0 -15 -36 -3 -44 5 -3 7 -19 4 -36 -4 -30 -5 -30
-63 -30 -33 0 -59 -4 -59 -9 0 -5 14 -8 31 -6 17 3 49 5 70 7 43 2 40 -5 44
111 2 38 8 74 14 80 8 8 11 3 11 -22 l0 -32 94 3 c52 1 98 0 101 -3 3 -4 7
-24 9 -45 5 -58 -18 -74 -113 -75 -42 -1 -79 -1 -83 0 -5 0 -8 -4 -8 -10 0 -7
9 -9 23 -6 12 4 61 7 109 8 l88 2 5 31 c3 17 6 60 8 96 1 36 6 65 11 65 5 0 9
-27 7 -60 l-2 -60 121 -54 c66 -29 120 -55 118 -56 -2 -2 -73 -8 -158 -14 -85
-6 -184 -13 -220 -16 -36 -2 -112 -7 -170 -10 -133 -7 -164 -13 -152 -28 19
-27 94 -206 90 -218 -2 -7 -26 37 -52 97 -51 115 -63 137 -52 91 4 -19 3 -26
-3 -22 -7 4 -8 -1 -4 -12 10 -28 33 -58 40 -55 4 2 9 -1 11 -7 2 -6 -5 -11
-15 -11 -10 0 -14 -3 -7 -8 5 -4 16 -22 24 -41 12 -29 15 -31 21 -15 6 17 8
16 14 -8 7 -26 8 -27 91 -27 l84 0 0 44 c0 25 3 45 8 45 4 0 5 -21 3 -46 l-3
-47 213 7 c118 3 231 9 252 12 l37 6 0 620 0 620 -87 -6 c-101 -6 -138 -11
-153 -21 -18 -11 -49 5 -53 28 l-4 22 -8 -22 c-4 -13 -12 -23 -17 -23 -6 0 -7
7 -4 16 5 14 4 15 -9 4 -13 -11 -15 -9 -15 14 0 35 -16 33 -35 -4z m-312 -83
c20 -3 37 -1 37 4 0 5 12 9 26 9 20 0 25 -4 20 -16 -3 -9 -6 -22 -6 -30 0 -9
-11 -14 -30 -14 -20 0 -30 5 -30 15 0 11 -13 15 -57 16 -48 1 -191 7 -201 8
-2 1 0 6 3 11 7 11 152 9 238 -3z m285 -4 c-10 -2 -26 -2 -35 0 -10 3 -2 5 17
5 19 0 27 -2 18 -5z m252 -10 c8 -3 21 -5 29 -4 7 1 10 -2 7 -8 -4 -5 4 -12
16 -14 13 -2 2 -4 -24 -4 -34 0 -48 4 -48 14 0 9 -5 11 -12 7 -13 -8 -77 -6
-91 3 -4 2 -5 7 -3 11 5 8 104 4 126 -5z m-327 0 c-7 -2 -19 -2 -25 0 -7 3 -2
5 12 5 14 0 19 -2 13 -5z m-208 -23 c3 -6 -1 -7 -9 -4 -18 7 -21 14 -7 14 6 0
13 -4 16 -10z m685 -570 c0 -5 -2 -10 -4 -10 -3 0 -8 5 -11 10 -3 6 -1 10 4
10 6 0 11 -4 11 -10z m-243 -62 c-3 -7 -5 -2 -5 12 0 14 2 19 5 13 2 -7 2 -19
0 -25z m233 -28 c0 -16 -4 -30 -8 -30 -5 0 -7 14 -4 30 2 17 6 30 8 30 2 0 4
-13 4 -30z m-233 -10 c-1 -11 -5 -20 -9 -20 -4 0 -8 9 -8 20 0 11 4 20 9 20 6
0 9 -9 8 -20z m-907 -89 c0 -6 -4 -13 -10 -16 -5 -3 -10 1 -10 9 0 9 5 16 10
16 6 0 10 -4 10 -9z m25 -171 c10 -11 16 -20 13 -20 -3 0 -13 9 -23 20 -10 11
-16 20 -13 20 3 0 13 -9 23 -20z m395 -75 c0 -5 -5 -3 -10 5 -5 8 -10 20 -10
25 0 6 5 3 10 -5 5 -8 10 -19 10 -25z m260 5 c0 -5 -7 -10 -15 -10 -8 0 -15 5
-15 10 0 6 7 10 15 10 8 0 15 -4 15 -10z m-10 -40 c0 -5 -5 -10 -11 -10 -5 0
-7 5 -4 10 3 6 8 10 11 10 2 0 4 -4 4 -10z m-216 -36 c3 -8 2 -12 -4 -9 -6 3
-10 10 -10 16 0 14 7 11 14 -7z"/>
<path d="M51 1247 c-1 -16 -6 -27 -13 -26 -29 4 -38 -2 -38 -26 0 -14 5 -25
10 -25 6 0 10 4 10 9 0 14 39 20 43 7 2 -6 6 -9 9 -6 2 3 -2 25 -8 50 -10 36
-13 39 -13 17z"/>
<path d="M493 1255 c-17 -19 -17 -30 0 -16 18 14 27 4 27 -31 0 -15 5 -28 11
-28 15 0 4 60 -14 77 -9 9 -15 8 -24 -2z"/>
<path d="M710 1259 c0 -5 5 -7 10 -4 6 3 10 8 10 11 0 2 -4 4 -10 4 -5 0 -10
-5 -10 -11z"/>
<path d="M1170 1258 c-76 -16 -95 -21 -107 -31 -9 -6 -13 -5 -13 4 0 9 -3 10
-8 3 -6 -9 -19 -10 -84 -5 -10 0 -18 6 -18 12 0 5 5 7 10 4 6 -3 10 -1 10 4 0
15 -16 14 -33 -3 -15 -16 -167 -29 -167 -15 0 5 11 9 24 9 14 0 27 4 30 8 7
11 -54 9 -62 -3 -4 -5 -14 -10 -22 -10 -10 0 -16 -12 -18 -32 -2 -18 -8 -33
-14 -33 -6 0 -8 15 -6 34 2 19 0 32 -5 29 -4 -2 -14 1 -22 7 -10 8 -19 9 -32
1 -16 -9 -14 -10 10 -11 25 0 28 -3 25 -27 -2 -24 -8 -28 -33 -29 -17 0 -37
-4 -43 -8 -7 -4 -19 -2 -27 4 -12 10 -15 9 -15 -4 0 -13 11 -15 78 -11 42 2
79 5 82 6 3 1 96 1 207 0 111 -1 204 2 207 7 3 4 41 8 85 7 78 0 81 0 81 22 0
34 30 30 31 -4 0 -24 2 -25 8 -9 7 19 8 19 14 1 4 -10 10 -15 14 -11 3 3 -2
15 -12 26 -18 20 -13 25 22 21 20 -3 24 17 7 33 -17 18 -64 22 -64 6 0 -5 3
-9 8 -9 4 1 18 0 32 -1 24 -2 23 -3 -5 -9 -42 -10 -65 -3 -57 17 4 12 -1 11
-22 -6 -35 -27 -44 -27 -54 -4 -6 14 -13 16 -42 10z m-5 -46 c-3 -3 -11 0 -18
7 -9 10 -8 11 6 5 10 -3 15 -9 12 -12z"/>
<path d="M230 1238 c0 -4 -11 -10 -25 -14 -14 -3 -22 -10 -19 -15 3 -5 -2 -12
-10 -15 -29 -11 -16 -23 19 -17 34 5 50 -9 23 -20 -7 -3 33 -6 89 -6 58 -1
104 3 108 9 3 6 26 8 51 6 24 -2 44 0 44 5 0 5 -14 24 -31 44 -23 26 -35 33
-47 26 -10 -5 -32 -6 -50 -4 -28 5 -31 3 -26 -13 6 -15 4 -17 -6 -7 -7 6 -19
9 -27 6 -8 -3 -19 0 -24 8 -8 14 -69 20 -69 7z m94 -69 c-3 -5 -23 -9 -45 -9
-22 0 -38 4 -35 9 3 5 15 7 25 4 10 -3 22 0 25 6 4 5 13 8 21 5 8 -4 12 -10 9
-15z m86 11 c0 -5 -6 -10 -14 -10 -8 0 -21 -3 -30 -6 -9 -3 -16 -1 -16 4 0 10
19 18 48 21 6 0 12 -3 12 -9z"/>
<path d="M558 1233 c7 -3 16 -2 19 1 4 3 -2 6 -13 5 -11 0 -14 -3 -6 -6z"/>
<path d="M1850 1230 c0 -5 5 -10 10 -10 6 0 10 5 10 10 0 6 -4 10 -10 10 -5 0
-10 -4 -10 -10z"/>
<path d="M1708 1143 c7 -3 16 -2 19 1 4 3 -2 6 -13 5 -11 0 -14 -3 -6 -6z"/>
<path d="M1830 1140 c0 -5 5 -10 10 -10 6 0 10 5 10 10 0 6 -4 10 -10 10 -5 0
-10 -4 -10 -10z"/>
<path d="M1130 950 l0 -175 87 4 c76 3 93 7 128 31 77 52 166 101 176 98 6 -2
-31 -32 -82 -66 l-93 -62 145 4 c79 2 158 5 176 5 l31 1 4 68 3 67 -89 -4
c-63 -2 -86 0 -82 8 4 7 39 11 86 11 l79 0 3 90 3 90 -27 0 c-14 0 -28 -5 -30
-12 -7 -20 -290 -12 -301 8 -7 12 -28 15 -113 12 l-104 -2 0 -176z m108 147
c7 3 13 -6 13 -24 l2 -28 4 28 c5 30 23 38 23 10 0 -32 -14 -41 -58 -39 l-43
2 3 -55 3 -56 45 1 c70 2 182 14 191 20 5 3 9 0 9 -5 0 -6 16 -11 37 -11 20 0
33 -3 30 -7 -4 -3 -86 -8 -183 -11 -131 -3 -175 -1 -170 7 4 6 10 9 14 7 4 -2
5 33 2 77 -3 46 -2 85 3 88 6 4 21 4 36 -1 14 -4 32 -5 39 -3z m-58 -252 c0
-30 -4 -55 -10 -55 -11 0 -14 93 -3 103 12 12 13 8 13 -48z"/>
<path d="M1832 1090 c0 -19 2 -27 5 -17 2 9 2 25 0 35 -3 9 -5 1 -5 -18z"/>
<path d="M100 1060 c8 -5 23 -7 33 -4 9 3 17 0 17 -6 0 -6 -4 -9 -9 -5 -5 3
-12 1 -16 -5 -4 -6 10 -9 37 -9 24 1 33 4 21 6 -13 2 -23 8 -23 13 0 4 9 6 20
3 11 -3 20 0 20 6 0 7 -22 11 -57 11 -41 0 -54 -3 -43 -10z"/>
<path d="M220 1050 c0 -16 7 -20 35 -20 19 0 35 5 35 11 0 5 -5 7 -10 4 -6 -3
-20 -3 -33 2 -19 6 -17 8 18 14 l40 6 -42 2 c-37 1 -43 -2 -43 -19z"/>
<path d="M310 970 c0 -55 4 -100 9 -100 5 0 6 20 3 45 -5 45 -4 45 26 45 46 0
50 20 5 21 l-38 2 40 7 40 6 -40 6 -40 5 40 3 40 3 -40 7 -40 7 38 2 c46 1 41
20 -6 22 -30 2 -30 2 8 9 l40 7 -42 2 -43 1 0 -100z"/>
<path d="M400 1050 c0 -16 7 -20 35 -20 44 0 46 20 3 21 -32 2 -32 2 7 9 l40
7 -42 2 c-37 1 -43 -2 -43 -19z"/>
<path d="M490 1040 c0 -29 2 -30 43 -29 l42 2 -40 7 -40 7 38 2 c46 1 41 20
-6 22 -30 2 -30 2 8 9 l40 7 -42 2 c-41 1 -43 0 -43 -29z"/>
<path d="M582 963 l2 -108 3 102 4 102 32 4 c31 4 31 4 -5 5 l-38 2 2 -107z"/>
<path d="M670 1040 c0 -28 3 -30 35 -30 32 0 35 2 35 30 0 28 -3 30 -35 30
-32 0 -35 -2 -35 -30z"/>
<path d="M758 1040 c4 -27 8 -30 38 -30 31 0 34 3 34 30 0 28 -2 30 -38 30
-37 0 -38 -1 -34 -30z"/>
<path d="M840 1040 c0 -28 2 -30 40 -30 38 0 40 2 40 30 0 28 -2 30 -40 30
-38 0 -40 -2 -40 -30z"/>
<path d="M930 1040 c0 -28 2 -30 38 -30 36 0 39 2 40 30 1 28 -1 30 -39 30
-37 0 -39 -2 -39 -30z"/>
<path d="M1020 1040 c0 -28 3 -30 35 -30 32 0 35 2 35 30 0 28 -3 30 -35 30
-32 0 -35 -2 -35 -30z"/>
<path d="M1100 1040 c0 -16 5 -30 10 -30 6 0 10 14 10 30 0 17 -4 30 -10 30
-5 0 -10 -13 -10 -30z"/>
<path d="M1850 1044 c0 -14 -4 -23 -8 -20 -11 6 -10 -75 1 -91 9 -15 67 -18
67 -4 0 6 -17 12 -37 14 l-38 4 38 1 c20 1 37 6 37 11 0 6 -17 12 -37 14 l-38
4 38 1 c20 1 37 7 37 13 0 7 -14 10 -35 7 -19 -2 -35 0 -35 4 0 4 15 8 34 8
28 0 34 4 38 25 6 30 2 35 -34 35 -23 0 -28 -4 -28 -26z"/>
<path d="M1930 1014 c0 -50 1 -53 28 -57 l27 -4 -27 -2 c-25 -1 -28 -5 -28
-36 0 -30 3 -35 24 -35 13 0 27 -6 29 -12 3 -7 6 34 6 92 l1 105 -30 1 c-30 1
-30 1 -30 -52z"/>
<path d="M2008 1020 c-4 -40 -3 -40 31 -40 36 0 33 14 -4 23 -15 4 -13 5 8 6
22 1 27 6 27 26 0 21 -5 25 -29 25 -26 0 -29 -3 -33 -40z"/>
<path d="M2082 1020 c3 -36 6 -40 31 -40 15 0 27 4 27 9 0 6 -9 8 -20 6 -11
-2 -20 0 -20 6 0 5 8 9 19 9 12 0 20 9 23 25 5 23 2 25 -29 25 -33 0 -33 -1
-31 -40z"/>
<path d="M2160 1033 c0 -23 5 -28 25 -29 15 -1 25 4 25 11 0 7 3 20 6 29 5 13
-1 16 -25 16 -27 0 -31 -3 -31 -27z"/>
<path d="M2230 1030 c0 -19 5 -30 14 -30 30 0 46 13 46 36 0 20 -5 24 -30 24
-27 0 -30 -3 -30 -30z"/>
<path d="M2307 1053 c-4 -3 -7 -17 -7 -30 0 -21 4 -24 28 -21 21 2 28 9 30 31
3 23 0 27 -21 27 -13 0 -27 -3 -30 -7z"/>
<path d="M2379 1058 c-1 -2 -3 -15 -5 -30 -2 -25 0 -28 27 -28 26 0 29 3 29
30 0 25 -4 30 -25 30 -14 0 -26 -1 -26 -2z"/>
<path d="M2446 1044 c-13 -33 -6 -44 24 -44 27 0 30 3 30 30 0 25 -4 30 -24
30 -13 0 -27 -7 -30 -16z"/>
<path d="M2515 1050 c-2 -4 -4 -46 -4 -94 0 -68 3 -86 15 -86 8 0 14 -6 14
-14 0 -8 4 -17 8 -20 5 -3 10 20 10 52 1 31 5 80 8 108 6 49 5 51 -20 56 -15
3 -28 2 -31 -2z"/>
<path d="M2580 1025 c0 -20 5 -25 24 -25 17 0 25 7 28 25 5 22 2 25 -23 25
-24 0 -29 -4 -29 -25z"/>
<path d="M2650 1025 c0 -20 5 -25 25 -25 20 0 25 5 25 25 0 20 -5 25 -25 25
-20 0 -25 -5 -25 -25z"/>
<path d="M2719 1048 c-1 -2 -3 -13 -4 -25 -2 -18 3 -23 21 -23 13 0 24 4 24 9
0 5 3 16 6 25 5 12 0 16 -20 16 -14 0 -27 -1 -27 -2z"/>
<path d="M2780 1025 c0 -20 5 -25 25 -25 20 0 25 5 25 25 0 20 -5 25 -25 25
-20 0 -25 -5 -25 -25z"/>
<path d="M2849 1048 c-1 -2 -3 -13 -4 -25 -3 -34 46 -32 62 2 11 24 10 25 -23
25 -19 0 -35 -1 -35 -2z"/>
<path d="M40 1010 l-25 -8 28 -1 c15 -1 27 4 27 9 0 6 -1 10 -2 9 -2 -1 -14
-5 -28 -9z"/>
<path d="M143 1013 c15 -2 37 -2 50 0 12 2 0 4 -28 4 -27 0 -38 -2 -22 -4z"/>
<path d="M220 945 c0 -41 4 -75 9 -75 5 0 6 20 3 45 l-5 45 37 0 c45 0 48 20
4 21 l-33 2 35 7 35 7 -40 3 -40 3 40 7 40 7 -42 2 -43 1 0 -75z"/>
<path d="M418 1013 c12 -2 32 -2 45 0 12 2 2 4 -23 4 -25 0 -35 -2 -22 -4z"/>
<path d="M123 980 c1 -17 8 -20 44 -20 36 0 42 3 40 20 -1 17 -8 20 -44 20
-36 0 -42 -3 -40 -20z"/>
<path d="M400 935 c0 -36 4 -65 9 -65 5 0 6 20 3 45 -5 45 -4 45 26 45 46 0
50 20 5 21 l-38 2 40 7 40 7 -42 2 -43 1 0 -65z"/>
<path d="M490 935 c0 -36 4 -65 8 -65 5 0 8 21 8 48 -1 45 0 47 26 44 14 -2
29 2 33 7 4 7 -8 12 -32 12 l-38 2 40 7 40 7 -42 2 -43 1 0 -65z"/>
<path d="M670 990 c0 -5 18 -10 41 -10 24 0 38 4 34 10 -3 6 -22 10 -41 10
-19 0 -34 -4 -34 -10z"/>
<path d="M760 990 c0 -5 16 -10 35 -10 19 0 35 5 35 10 0 6 -16 10 -35 10 -19
0 -35 -4 -35 -10z"/>
<path d="M840 990 c0 -5 18 -10 40 -10 22 0 40 5 40 10 0 6 -18 10 -40 10 -22
0 -40 -4 -40 -10z"/>
<path d="M930 990 c0 -5 7 -10 15 -10 8 0 15 5 15 10 0 6 -7 10 -15 10 -8 0
-15 -4 -15 -10z"/>
<path d="M980 990 c0 -5 7 -10 15 -10 8 0 15 5 15 10 0 6 -7 10 -15 10 -8 0
-15 -4 -15 -10z"/>
<path d="M1020 990 c0 -5 16 -10 35 -10 19 0 35 5 35 10 0 6 -16 10 -35 10
-19 0 -35 -4 -35 -10z"/>
<path d="M1105 990 c-3 -5 -1 -10 4 -10 6 0 11 5 11 10 0 6 -2 10 -4 10 -3 0
-8 -4 -11 -10z"/>
<path d="M18 983 c12 -2 30 -2 40 0 9 3 -1 5 -23 4 -22 0 -30 -2 -17 -4z"/>
<path d="M2163 983 c9 -2 25 -2 35 0 9 3 1 5 -18 5 -19 0 -27 -2 -17 -5z"/>
<path d="M2243 983 c9 -2 25 -2 35 0 9 3 1 5 -18 5 -19 0 -27 -2 -17 -5z"/>
<path d="M2303 970 c-1 -15 4 -20 25 -20 21 0 28 5 28 20 0 15 -7 20 -26 20
-19 0 -26 -6 -27 -20z m27 0 c0 -5 -5 -10 -11 -10 -5 0 -7 5 -4 10 3 6 8 10
11 10 2 0 4 -4 4 -10z"/>
<path d="M2374 970 c0 -16 7 -20 31 -19 18 1 23 3 12 6 -18 5 -18 5 0 19 17
12 16 13 -12 14 -24 0 -31 -4 -31 -20z"/>
<path d="M2445 980 c3 -5 10 -10 16 -10 5 0 9 5 9 10 0 6 -7 10 -16 10 -8 0
-12 -4 -9 -10z"/>
<path d="M2580 980 c0 -5 11 -10 25 -10 14 0 25 5 25 10 0 6 -11 10 -25 10
-14 0 -25 -4 -25 -10z"/>
<path d="M2650 980 c0 -5 11 -10 25 -10 14 0 25 5 25 10 0 6 -11 10 -25 10
-14 0 -25 -4 -25 -10z"/>
<path d="M2745 980 c-3 -5 -1 -10 4 -10 6 0 11 5 11 10 0 6 -2 10 -4 10 -3 0
-8 -4 -11 -10z"/>
<path d="M2780 979 c0 -5 9 -9 20 -9 11 0 20 2 20 4 0 2 -9 6 -20 9 -11 3 -20
1 -20 -4z"/>
<path d="M2868 973 c6 -2 18 -2 25 0 6 3 1 5 -13 5 -14 0 -19 -2 -12 -5z"/>
<path d="M670 960 c0 -5 18 -10 41 -10 24 0 38 4 34 10 -3 6 -22 10 -41 10
-19 0 -34 -4 -34 -10z"/>
<path d="M760 960 c0 -5 16 -10 35 -10 19 0 35 5 35 10 0 6 -16 10 -35 10 -19
0 -35 -4 -35 -10z"/>
<path d="M840 960 c0 -5 18 -10 40 -10 22 0 40 5 40 10 0 6 -18 10 -40 10 -22
0 -40 -4 -40 -10z"/>
<path d="M930 959 c0 -5 18 -9 40 -9 22 0 40 4 40 9 0 4 -18 8 -40 8 -22 0
-40 -4 -40 -8z"/>
<path d="M1020 960 c0 -5 16 -10 35 -10 19 0 35 5 35 10 0 6 -16 10 -35 10
-19 0 -35 -4 -35 -10z"/>
<path d="M1105 960 c3 -5 8 -10 11 -10 2 0 4 5 4 10 0 6 -5 10 -11 10 -5 0 -7
-4 -4 -10z"/>
<path d="M2005 960 c-4 -6 7 -10 24 -10 17 0 31 5 31 10 0 6 -11 10 -24 10
-14 0 -28 -4 -31 -10z"/>
<path d="M2080 960 c0 -5 14 -10 30 -10 17 0 30 5 30 10 0 6 -13 10 -30 10
-16 0 -30 -4 -30 -10z"/>
<path d="M2155 960 c-4 -6 7 -10 25 -10 18 0 29 4 25 10 -3 6 -15 10 -25 10
-10 0 -22 -4 -25 -10z"/>
<path d="M2230 960 c0 -5 11 -10 25 -10 14 0 25 5 25 10 0 6 -11 10 -25 10
-14 0 -25 -4 -25 -10z"/>
<path d="M2453 953 c9 -2 25 -2 35 0 9 3 1 5 -18 5 -19 0 -27 -2 -17 -5z"/>
<path d="M2593 953 c9 -2 23 -2 30 0 6 3 -1 5 -18 5 -16 0 -22 -2 -12 -5z"/>
<path d="M2653 953 c9 -2 25 -2 35 0 9 3 1 5 -18 5 -19 0 -27 -2 -17 -5z"/>
<path d="M2715 950 c3 -5 12 -10 20 -10 8 0 17 5 20 10 4 6 -5 10 -20 10 -15
0 -24 -4 -20 -10z"/>
<path d="M2780 950 c0 -5 9 -10 20 -10 11 0 20 5 20 10 0 6 -9 10 -20 10 -11
0 -20 -4 -20 -10z"/>
<path d="M2840 950 c0 -5 14 -10 30 -10 17 0 30 5 30 10 0 6 -13 10 -30 10
-16 0 -30 -4 -30 -10z"/>
<path d="M0 938 c0 -5 5 -6 10 -3 5 3 10 -1 10 -9 0 -9 5 -16 10 -16 6 0 10 7
10 15 0 8 5 15 10 15 7 0 7 -6 0 -20 -12 -23 -21 -25 -38 -8 -9 9 -12 -38 -12
-215 0 -125 2 -227 6 -227 3 0 24 10 47 23 23 12 43 22 44 23 4 1 -15 305 -23
376 l-6 57 -34 -1 c-19 -1 -34 -5 -34 -10z m80 -400 c0 -7 -12 -19 -27 -25
-35 -17 -44 -16 -37 2 4 8 10 12 15 9 5 -3 9 -1 9 5 0 6 7 8 15 5 8 -4 15 -1
15 5 0 6 2 11 5 11 3 0 5 -6 5 -12z"/>
<path d="M670 930 c0 -5 18 -10 41 -10 24 0 38 4 34 10 -3 6 -22 10 -41 10
-19 0 -34 -4 -34 -10z"/>
<path d="M760 930 c0 -5 16 -10 35 -10 19 0 35 5 35 10 0 6 -16 10 -35 10 -19
0 -35 -4 -35 -10z"/>
<path d="M845 930 c-4 -6 10 -10 34 -10 23 0 41 5 41 10 0 6 -15 10 -34 10
-19 0 -38 -4 -41 -10z"/>
<path d="M930 929 c0 -5 18 -9 40 -9 22 0 40 4 40 9 0 4 -18 8 -40 8 -22 0
-40 -4 -40 -8z"/>
<path d="M1020 930 c0 -5 16 -10 35 -10 19 0 35 5 35 10 0 6 -16 10 -35 10
-19 0 -35 -4 -35 -10z"/>
<path d="M1100 930 c0 -5 5 -10 10 -10 6 0 10 5 10 10 0 6 -4 10 -10 10 -5 0
-10 -4 -10 -10z"/>
<path d="M2000 930 c0 -5 14 -10 30 -10 17 0 30 5 30 10 0 6 -13 10 -30 10
-16 0 -30 -4 -30 -10z"/>
<path d="M2080 930 c0 -5 11 -10 24 -10 14 0 28 5 31 10 4 6 -7 10 -24 10 -17
0 -31 -4 -31 -10z"/>
<path d="M2150 930 c0 -5 14 -10 30 -10 17 0 30 5 30 10 0 6 -13 10 -30 10
-16 0 -30 -4 -30 -10z"/>
<path d="M2230 930 c0 -5 11 -10 25 -10 14 0 25 5 25 10 0 6 -11 10 -25 10
-14 0 -25 -4 -25 -10z"/>
<path d="M2300 930 c0 -5 11 -10 25 -10 14 0 25 5 25 10 0 6 -11 10 -25 10
-14 0 -25 -4 -25 -10z"/>
<path d="M2370 930 c0 -5 11 -10 25 -10 14 0 25 5 25 10 0 6 -11 10 -25 10
-14 0 -25 -4 -25 -10z"/>
<path d="M2440 930 c0 -5 12 -10 28 -10 21 0 24 2 12 10 -20 13 -40 13 -40 0z"/>
<path d="M2580 928 c0 -4 12 -8 27 -8 14 0 23 3 19 7 -10 10 -46 11 -46 1z"/>
<path d="M2653 923 c9 -2 23 -2 30 0 6 3 -1 5 -18 5 -16 0 -22 -2 -12 -5z"/>
<path d="M2723 923 c9 -2 23 -2 30 0 6 3 -1 5 -18 5 -16 0 -22 -2 -12 -5z"/>
<path d="M2783 923 c9 -2 23 -2 30 0 6 3 -1 5 -18 5 -16 0 -22 -2 -12 -5z"/>
<path d="M2853 923 c9 -2 25 -2 35 0 9 3 1 5 -18 5 -19 0 -27 -2 -17 -5z"/>
<path d="M1835 895 c0 -11 -3 -26 -8 -32 -6 -9 -5 -13 4 -13 9 0 10 -3 4 -8
-16 -11 -16 -32 -1 -48 16 -16 76 -19 76 -4 0 6 -16 10 -35 10 -28 0 -35 4
-35 19 0 15 8 21 38 24 l37 4 -37 1 c-21 1 -38 6 -38 11 0 5 14 9 30 9 17 -1
33 2 37 5 3 4 -10 7 -30 7 -20 0 -37 4 -37 8 0 4 16 6 35 4 19 -2 35 0 35 6 0
5 -17 12 -39 14 -33 3 -38 1 -36 -17z"/>
<path d="M670 885 c0 -22 4 -25 40 -25 47 0 55 17 9 18 -44 1 -50 12 -6 12 50
0 47 16 -3 18 -36 2 -40 0 -40 -23z"/>
<path d="M760 900 c0 -5 16 -10 35 -10 19 0 35 5 35 10 0 6 -16 10 -35 10 -19
0 -35 -4 -35 -10z"/>
<path d="M845 900 c-4 -6 10 -10 34 -10 23 0 41 5 41 10 0 6 -15 10 -34 10
-19 0 -38 -4 -41 -10z"/>
<path d="M930 900 c0 -5 18 -10 40 -10 22 0 40 5 40 10 0 6 -18 10 -40 10 -22
0 -40 -4 -40 -10z"/>
<path d="M1020 900 c0 -5 16 -10 35 -10 19 0 35 5 35 10 0 6 -16 10 -35 10
-19 0 -35 -4 -35 -10z"/>
<path d="M1105 900 c-3 -5 -1 -10 4 -10 6 0 11 5 11 10 0 6 -2 10 -4 10 -3 0
-8 -4 -11 -10z"/>
<path d="M2000 900 c0 -5 14 -10 30 -10 17 0 30 5 30 10 0 6 -13 10 -30 10
-16 0 -30 -4 -30 -10z"/>
<path d="M2080 900 c0 -5 11 -10 24 -10 14 0 28 5 31 10 4 6 -7 10 -24 10 -17
0 -31 -4 -31 -10z"/>
<path d="M2150 900 c0 -5 14 -10 30 -10 17 0 30 5 30 10 0 6 -13 10 -30 10
-16 0 -30 -4 -30 -10z"/>
<path d="M2225 900 c3 -5 17 -10 31 -10 13 0 24 5 24 10 0 6 -14 10 -31 10
-17 0 -28 -4 -24 -10z"/>
<path d="M2300 900 c0 -5 11 -10 25 -10 14 0 25 5 25 10 0 6 -11 10 -25 10
-14 0 -25 -4 -25 -10z"/>
<path d="M2370 900 c0 -5 11 -10 25 -10 14 0 25 5 25 10 0 6 -11 10 -25 10
-14 0 -25 -4 -25 -10z"/>
<path d="M2440 900 c0 -5 11 -9 25 -8 14 1 25 6 25 10 0 4 -11 8 -25 8 -14 0
-25 -4 -25 -10z"/>
<path d="M2580 900 c0 -5 9 -10 19 -10 11 0 23 5 26 10 4 6 -5 10 -19 10 -14
0 -26 -4 -26 -10z"/>
<path d="M2640 900 c0 -5 11 -10 25 -10 14 0 25 5 25 10 0 6 -11 10 -25 10
-14 0 -25 -4 -25 -10z"/>
<path d="M2710 900 c0 -5 9 -10 19 -10 11 0 23 5 26 10 4 6 -5 10 -19 10 -14
0 -26 -4 -26 -10z"/>
<path d="M2770 900 c0 -5 11 -10 25 -10 14 0 25 5 25 10 0 6 -11 10 -25 10
-14 0 -25 -4 -25 -10z"/>
<path d="M2850 900 c-12 -8 -9 -10 12 -10 15 0 30 5 33 10 8 13 -25 13 -45 0z"/>
<path d="M760 870 c0 -5 16 -10 35 -10 19 0 35 5 35 10 0 6 -16 10 -35 10 -19
0 -35 -4 -35 -10z"/>
<path d="M850 870 c0 -5 16 -10 35 -10 19 0 35 5 35 10 0 6 -16 10 -35 10 -19
0 -35 -4 -35 -10z"/>
<path d="M930 870 c0 -5 18 -10 40 -10 22 0 40 5 40 10 0 6 -18 10 -40 10 -22
0 -40 -4 -40 -10z"/>
<path d="M1020 870 c0 -5 16 -10 35 -10 19 0 35 5 35 10 0 6 -16 10 -35 10
-19 0 -35 -4 -35 -10z"/>
<path d="M1105 870 c-3 -5 -1 -10 4 -10 6 0 11 5 11 10 0 6 -2 10 -4 10 -3 0
-8 -4 -11 -10z"/>
<path d="M2013 873 c9 -2 25 -2 35 0 9 3 1 5 -18 5 -19 0 -27 -2 -17 -5z"/>
<path d="M2093 873 c9 -2 25 -2 35 0 9 3 1 5 -18 5 -19 0 -27 -2 -17 -5z"/>
<path d="M2163 873 c9 -2 25 -2 35 0 9 3 1 5 -18 5 -19 0 -27 -2 -17 -5z"/>
<path d="M2233 873 c9 -2 25 -2 35 0 9 3 1 5 -18 5 -19 0 -27 -2 -17 -5z"/>
<path d="M2313 873 c9 -2 23 -2 30 0 6 3 -1 5 -18 5 -16 0 -22 -2 -12 -5z"/>
<path d="M2383 873 c9 -2 23 -2 30 0 6 3 -1 5 -18 5 -16 0 -22 -2 -12 -5z"/>
<path d="M2453 873 c9 -2 23 -2 30 0 6 3 -1 5 -18 5 -16 0 -22 -2 -12 -5z"/>
<path d="M2583 873 c9 -2 23 -2 30 0 6 3 -1 5 -18 5 -16 0 -22 -2 -12 -5z"/>
<path d="M2653 873 c9 -2 23 -2 30 0 6 3 -1 5 -18 5 -16 0 -22 -2 -12 -5z"/>
<path d="M2713 873 c9 -2 23 -2 30 0 6 3 -1 5 -18 5 -16 0 -22 -2 -12 -5z"/>
<path d="M2770 876 c0 -10 28 -13 41 -5 10 6 7 9 -13 9 -16 0 -28 -2 -28 -4z"/>
<path d="M2835 870 c3 -5 16 -11 28 -11 17 -1 15 -3 -8 -9 l-30 -8 33 -1 c26
-1 32 3 32 19 0 16 -7 20 -31 20 -17 0 -28 -4 -24 -10z"/>
<path d="M125 850 c-4 -6 12 -10 39 -10 25 0 46 5 46 10 0 13 -77 13 -85 0z"/>
<path d="M230 840 c0 -17 6 -20 38 -19 l37 2 -35 7 c-31 6 -32 8 -8 9 41 2 45
21 4 21 -29 0 -36 -4 -36 -20z"/>
<path d="M317 854 c-3 -3 -3 -12 0 -20 6 -16 73 -19 73 -3 0 6 -9 8 -20 4 -27
-9 -25 3 3 15 19 8 18 9 -14 9 -20 1 -38 -2 -42 -5z"/>
<path d="M410 840 c0 -16 7 -20 35 -20 44 0 46 20 3 21 l-33 2 35 7 35 7 -37
2 c-32 1 -38 -2 -38 -19z"/>
<path d="M518 853 c12 -2 30 -2 40 0 9 3 -1 5 -23 4 -22 0 -30 -2 -17 -4z"/>
<path d="M2175 850 l-30 -8 33 -1 c17 0 32 4 32 9 0 6 -1 9 -2 9 -2 -1 -16 -5
-33 -9z"/>
<path d="M2245 850 l-30 -8 33 -1 c17 0 32 4 32 9 0 6 -1 9 -2 9 -2 -1 -16 -5
-33 -9z"/>
<path d="M2320 850 l-25 -8 28 -1 c15 -1 27 4 27 9 0 6 -1 10 -2 9 -2 -1 -14
-5 -28 -9z"/>
<path d="M2390 850 l-25 -8 28 -1 c15 -1 27 4 27 9 0 6 -1 10 -2 9 -2 -1 -14
-5 -28 -9z"/>
<path d="M2460 850 l-25 -8 28 -1 c15 -1 27 4 27 9 0 6 -1 10 -2 9 -2 -1 -14
-5 -28 -9z"/>
<path d="M2590 850 l-25 -8 28 -1 c15 -1 27 4 27 9 0 6 -1 10 -2 9 -2 -1 -14
-5 -28 -9z"/>
<path d="M2660 850 l-25 -8 28 -1 c15 -1 27 4 27 9 0 6 -1 10 -2 9 -2 -1 -14
-5 -28 -9z"/>
<path d="M672 793 l2 -58 38 3 c21 2 36 8 33 12 -2 4 -15 5 -29 3 -13 -3 -27
0 -30 6 -5 7 5 11 28 11 20 0 36 5 36 10 0 6 -16 10 -36 10 -23 0 -33 4 -28
11 3 6 17 9 30 6 13 -2 24 0 24 4 0 5 -15 10 -32 10 -32 2 -32 2 7 9 30 5 33
8 13 9 -14 0 -33 4 -42 7 -13 5 -15 -3 -14 -53z"/>
<path d="M760 838 c0 -4 16 -8 35 -8 19 0 35 2 35 4 0 2 -16 6 -35 8 -19 2
-35 0 -35 -4z"/>
<path d="M843 838 c-2 -5 15 -8 38 -8 23 0 39 3 36 7 -10 9 -68 10 -74 1z"/>
<path d="M930 840 c0 -5 18 -10 41 -10 24 0 38 4 34 10 -3 6 -22 10 -41 10
-19 0 -34 -4 -34 -10z"/>
<path d="M1020 840 c0 -5 16 -10 35 -10 19 0 35 5 35 10 0 6 -16 10 -35 10
-19 0 -35 -4 -35 -10z"/>
<path d="M2013 843 c9 -2 25 -2 35 0 9 3 1 5 -18 5 -19 0 -27 -2 -17 -5z"/>
<path d="M2093 843 c9 -2 23 -2 30 0 6 3 -1 5 -18 5 -16 0 -22 -2 -12 -5z"/>
<path d="M2713 843 c9 -2 23 -2 30 0 6 3 -1 5 -18 5 -16 0 -22 -2 -12 -5z"/>
<path d="M2778 843 c6 -2 18 -2 25 0 6 3 1 5 -13 5 -14 0 -19 -2 -12 -5z"/>
<path d="M500 831 c0 -6 15 -12 33 -14 l32 -4 -32 -1 c-22 -1 -33 -7 -33 -17
0 -11 10 -15 38 -14 l37 2 -35 7 -35 7 33 2 c25 1 32 5 32 21 0 16 -7 20 -35
20 -19 0 -35 -4 -35 -9z"/>
<path d="M148 823 c12 -2 32 -2 45 0 12 2 2 4 -23 4 -25 0 -35 -2 -22 -4z"/>
<path d="M1888 823 c7 -3 16 -2 19 1 4 3 -2 6 -13 5 -11 0 -14 -3 -6 -6z"/>
<path d="M2093 823 c9 -2 23 -2 30 0 6 3 -1 5 -18 5 -16 0 -22 -2 -12 -5z"/>
<path d="M2238 823 c6 -2 18 -2 25 0 6 3 1 5 -13 5 -14 0 -19 -2 -12 -5z"/>
<path d="M2588 823 c7 -3 16 -2 19 1 4 3 -2 6 -13 5 -11 0 -14 -3 -6 -6z"/>
<path d="M2648 823 c6 -2 18 -2 25 0 6 3 1 5 -13 5 -14 0 -19 -2 -12 -5z"/>
<path d="M760 812 c0 -4 16 -6 35 -4 19 2 35 6 35 8 0 2 -16 4 -35 4 -19 0
-35 -4 -35 -8z"/>
<path d="M845 811 c-3 -6 10 -7 32 -4 50 8 55 13 10 13 -20 0 -38 -4 -42 -9z"/>
<path d="M930 812 c0 -4 16 -6 35 -4 19 2 35 6 35 8 0 2 -16 4 -35 4 -19 0
-35 -4 -35 -8z"/>
<path d="M1020 812 c0 -4 16 -6 35 -4 19 2 35 6 35 8 0 2 -16 4 -35 4 -19 0
-35 -4 -35 -8z"/>
<path d="M148 803 c12 -2 32 -2 45 0 12 2 2 4 -23 4 -25 0 -35 -2 -22 -4z"/>
<path d="M248 803 c12 -2 30 -2 40 0 9 3 -1 5 -23 4 -22 0 -30 -2 -17 -4z"/>
<path d="M338 803 c12 -2 30 -2 40 0 9 3 -1 5 -23 4 -22 0 -30 -2 -17 -4z"/>
<path d="M428 803 c12 -2 30 -2 40 0 9 3 -1 5 -23 4 -22 0 -30 -2 -17 -4z"/>
<path d="M1920 756 c0 -52 1 -55 28 -59 l27 -4 -27 -2 c-24 -1 -28 -5 -28 -30
0 -24 5 -29 30 -33 l30 -5 0 94 0 93 -30 0 c-30 0 -30 -1 -30 -54z"/>
<path d="M2500 761 c0 -39 4 -51 18 -54 13 -4 11 -5 -5 -6 -19 -1 -23 -7 -23
-31 0 -24 4 -30 21 -30 14 0 19 -5 16 -15 -4 -8 -2 -17 2 -19 10 -6 21 75 21
152 0 49 -1 52 -25 52 -23 0 -25 -3 -25 -49z"/>
<path d="M2720 800 l-25 -8 28 -1 c15 -1 27 4 27 9 0 6 -1 10 -2 9 -2 -1 -14
-5 -28 -9z"/>
<path d="M2764 798 c-3 -4 6 -8 20 -8 14 0 26 4 26 8 0 4 -9 8 -21 8 -11 0
-23 -4 -25 -8z"/>
<path d="M2850 800 c-24 -8 -23 -8 8 -9 17 -1 32 4 32 9 0 11 -5 11 -40 0z"/>
<path d="M2000 790 c0 -5 14 -10 30 -10 17 0 30 5 30 10 0 6 -13 10 -30 10
-16 0 -30 -4 -30 -10z"/>
<path d="M2070 790 c0 -5 14 -10 30 -10 17 0 30 5 30 10 0 6 -13 10 -30 10
-16 0 -30 -4 -30 -10z"/>
<path d="M2150 790 c0 -5 11 -10 25 -10 14 0 25 5 25 10 0 6 -11 10 -25 10
-14 0 -25 -4 -25 -10z"/>
<path d="M2220 790 c0 -5 11 -10 24 -10 14 0 28 5 31 10 4 6 -7 10 -24 10 -17
0 -31 -4 -31 -10z"/>
<path d="M2290 790 c0 -5 11 -10 24 -10 14 0 28 5 31 10 4 6 -7 10 -24 10 -17
0 -31 -4 -31 -10z"/>
<path d="M2365 790 c3 -5 15 -10 25 -10 10 0 22 5 25 10 4 6 -7 10 -25 10 -18
0 -29 -4 -25 -10z"/>
<path d="M2435 790 c3 -5 15 -10 25 -10 10 0 22 5 25 10 4 6 -7 10 -25 10 -18
0 -29 -4 -25 -10z"/>
<path d="M2583 793 c9 -2 23 -2 30 0 6 3 -1 5 -18 5 -16 0 -22 -2 -12 -5z"/>
<path d="M2643 793 c9 -2 25 -2 35 0 9 3 1 5 -18 5 -19 0 -27 -2 -17 -5z"/>
<path d="M158 783 c12 -2 30 -2 40 0 9 3 -1 5 -23 4 -22 0 -30 -2 -17 -4z"/>
<path d="M230 735 c0 -30 4 -55 9 -55 4 0 6 22 3 49 l-4 50 33 4 34 4 -37 1
-38 2 0 -55z"/>
<path d="M320 734 c0 -30 4 -53 9 -50 5 3 6 26 4 50 -5 44 -5 45 28 49 l34 4
-37 1 -38 2 0 -56z"/>
<path d="M411 725 l2 -65 33 0 c18 0 36 5 39 10 4 6 -6 9 -26 8 -32 -3 -32 -3
-36 49 l-4 52 33 4 c33 4 33 4 -5 5 l-38 2 2 -65z"/>
<path d="M760 780 c0 -5 18 -10 41 -10 24 0 38 4 34 10 -3 6 -22 10 -41 10
-19 0 -34 -4 -34 -10z"/>
<path d="M850 780 c0 -5 16 -10 35 -10 19 0 35 5 35 10 0 6 -16 10 -35 10 -19
0 -35 -4 -35 -10z"/>
<path d="M935 780 c-4 -6 10 -10 34 -10 23 0 41 5 41 10 0 6 -15 10 -34 10
-19 0 -38 -4 -41 -10z"/>
<path d="M1020 780 c0 -5 16 -10 35 -10 19 0 35 5 35 10 0 6 -16 10 -35 10
-19 0 -35 -4 -35 -10z"/>
<path d="M2570 770 c0 -5 11 -10 25 -10 14 0 25 5 25 10 0 6 -11 10 -25 10
-14 0 -25 -4 -25 -10z"/>
<path d="M2635 770 c-4 -6 5 -10 19 -10 14 0 26 5 26 10 0 6 -9 10 -19 10 -11
0 -23 -4 -26 -10z"/>
<path d="M2700 770 c0 -5 11 -10 25 -10 14 0 25 5 25 10 0 6 -11 10 -25 10
-14 0 -25 -4 -25 -10z"/>
<path d="M2760 770 c0 -5 11 -10 25 -10 14 0 25 5 25 10 0 6 -11 10 -25 10
-14 0 -25 -4 -25 -10z"/>
<path d="M2830 770 c0 -5 11 -10 24 -10 14 0 28 5 31 10 4 6 -7 10 -24 10 -17
0 -31 -4 -31 -10z"/>
<path d="M1235 761 l-100 -6 -3 -142 -3 -141 38 2 c21 2 63 3 94 4 49 2 65 8
123 46 68 46 103 67 145 86 49 22 28 2 -60 -59 -49 -35 -89 -65 -87 -66 3 -3
301 15 305 19 1 0 3 30 4 65 l3 64 -70 -1 c-49 0 -62 2 -44 8 14 4 46 8 73 9
l47 1 0 60 0 60 -182 -2 c-101 -1 -228 -4 -283 -7z m301 -10 c-3 -4 -43 -32
-88 -62 -46 -29 -85 -57 -88 -60 -9 -12 -223 -21 -215 -10 3 6 40 11 84 11
l78 0 109 65 c105 62 131 75 120 56z m-357 -68 c0 -36 -3 -43 -9 -28 -12 28
-12 75 0 75 6 0 10 -21 9 -47z m1 -144 c0 -31 -4 -48 -10 -44 -5 3 -10 26 -10
51 0 24 5 44 10 44 6 0 10 -23 10 -51z"/>
<path d="M2000 760 c0 -5 11 -10 24 -10 14 0 28 5 31 10 4 6 -7 10 -24 10 -17
0 -31 -4 -31 -10z"/>
<path d="M2070 760 c0 -6 14 -9 30 -8 17 1 30 6 30 10 0 4 -13 8 -30 8 -16 0
-30 -5 -30 -10z"/>
<path d="M2144 750 c0 -15 7 -20 28 -20 15 0 28 4 28 9 0 5 -9 7 -20 4 -11 -3
-20 -1 -20 5 0 6 10 13 23 15 17 3 15 5 -8 6 -25 1 -31 -3 -31 -19z"/>
<path d="M2233 763 c9 -2 25 -2 35 0 9 3 1 5 -18 5 -19 0 -27 -2 -17 -5z"/>
<path d="M2303 763 c9 -2 25 -2 35 0 9 3 1 5 -18 5 -19 0 -27 -2 -17 -5z"/>
<path d="M2373 763 c9 -2 25 -2 35 0 9 3 1 5 -18 5 -19 0 -27 -2 -17 -5z"/>
<path d="M2438 763 c7 -3 16 -2 19 1 4 3 -2 6 -13 5 -11 0 -14 -3 -6 -6z"/>
<path d="M760 750 c0 -5 18 -10 41 -10 24 0 38 4 34 10 -3 6 -22 10 -41 10
-19 0 -34 -4 -34 -10z"/>
<path d="M850 750 c0 -5 16 -10 35 -10 19 0 35 5 35 10 0 6 -16 10 -35 10 -19
0 -35 -4 -35 -10z"/>
<path d="M935 750 c-4 -6 10 -10 34 -10 23 0 41 5 41 10 0 6 -15 10 -34 10
-19 0 -38 -4 -41 -10z"/>
<path d="M1020 750 c0 -5 16 -10 35 -10 19 0 35 5 35 10 0 6 -16 10 -35 10
-19 0 -35 -4 -35 -10z"/>
<path d="M2220 740 c0 -5 11 -10 25 -10 14 0 25 5 25 10 0 6 -11 10 -25 10
-14 0 -25 -4 -25 -10z"/>
<path d="M2290 740 c0 -5 11 -10 25 -10 14 0 25 5 25 10 0 6 -11 10 -25 10
-14 0 -25 -4 -25 -10z"/>
<path d="M2360 740 c0 -5 11 -10 25 -10 14 0 25 5 25 10 0 6 -11 10 -25 10
-14 0 -25 -4 -25 -10z"/>
<path d="M2430 740 c0 -5 7 -10 15 -10 8 0 15 5 15 10 0 6 -7 10 -15 10 -8 0
-15 -4 -15 -10z"/>
<path d="M2565 740 c3 -5 15 -10 25 -10 10 0 22 5 25 10 4 6 -7 10 -25 10 -18
0 -29 -4 -25 -10z"/>
<path d="M2634 730 c0 -14 7 -20 23 -20 16 0 23 6 23 20 0 14 -7 20 -23 20
-16 0 -23 -6 -23 -20z"/>
<path d="M2697 730 c-4 -16 0 -20 18 -20 14 0 25 7 28 20 4 16 0 20 -18 20
-14 0 -25 -7 -28 -20z"/>
<path d="M2763 730 c-1 -15 4 -20 23 -20 27 0 34 20 7 21 -15 0 -15 2 2 9 18
8 18 9 -5 9 -19 1 -26 -4 -27 -19z"/>
<path d="M2840 740 c24 -8 24 -8 3 -9 -34 -1 -28 -21 6 -21 24 0 29 4 28 20
-1 16 -8 20 -32 19 -29 -1 -29 -1 -5 -9z"/>
<path d="M502 693 l-2 -53 35 0 c28 0 35 4 35 20 0 15 -7 20 -29 20 -26 0 -30
4 -34 33 -3 22 -4 15 -5 -20z m28 -33 c0 -5 -5 -10 -11 -10 -5 0 -7 5 -4 10 3
6 8 10 11 10 2 0 4 -4 4 -10z m25 0 c3 -5 1 -10 -4 -10 -6 0 -11 5 -11 10 0 6
2 10 4 10 3 0 8 -4 11 -10z"/>
<path d="M1840 730 c0 -5 14 -10 30 -10 17 0 30 5 30 10 0 6 -13 10 -30 10
-16 0 -30 -4 -30 -10z"/>
<path d="M2008 733 c12 -2 30 -2 40 0 9 3 -1 5 -23 4 -22 0 -30 -2 -17 -4z"/>
<path d="M2083 733 c9 -2 25 -2 35 0 9 3 1 5 -18 5 -19 0 -27 -2 -17 -5z"/>
<path d="M693 722 c-40 -6 -25 -18 17 -14 22 2 40 5 40 7 0 6 -36 10 -57 7z"/>
<path d="M765 720 c-4 -6 10 -10 35 -10 25 0 39 4 35 10 -3 6 -19 10 -35 10
-16 0 -32 -4 -35 -10z"/>
<path d="M850 720 c0 -5 16 -10 35 -10 19 0 35 5 35 10 0 6 -16 10 -35 10 -19
0 -35 -4 -35 -10z"/>
<path d="M940 720 c0 -5 16 -10 35 -10 19 0 35 5 35 10 0 6 -16 10 -35 10 -19
0 -35 -4 -35 -10z"/>
<path d="M1020 720 c0 -5 16 -10 35 -10 19 0 35 5 35 10 0 6 -16 10 -35 10
-19 0 -35 -4 -35 -10z"/>
<path d="M1993 708 c-2 -5 10 -8 26 -8 17 0 31 3 31 8 0 4 -12 7 -26 7 -14 0
-28 -3 -31 -7z"/>
<path d="M2070 710 c0 -5 14 -10 30 -10 17 0 30 5 30 10 0 6 -13 10 -30 10
-16 0 -30 -4 -30 -10z"/>
<path d="M2145 710 c-4 -6 7 -10 24 -10 17 0 31 5 31 10 0 6 -11 10 -24 10
-14 0 -28 -4 -31 -10z"/>
<path d="M2220 710 c0 -5 11 -10 25 -10 14 0 25 5 25 10 0 6 -11 10 -25 10
-14 0 -25 -4 -25 -10z"/>
<path d="M2290 710 c0 -5 11 -10 25 -10 14 0 25 5 25 10 0 6 -11 10 -25 10
-14 0 -25 -4 -25 -10z"/>
<path d="M2373 713 c9 -2 23 -2 30 0 6 3 -1 5 -18 5 -16 0 -22 -2 -12 -5z"/>
<path d="M2443 713 c9 -2 23 -2 30 0 6 3 -1 5 -18 5 -16 0 -22 -2 -12 -5z"/>
<path d="M2573 713 c9 -2 23 -2 30 0 6 3 -1 5 -18 5 -16 0 -22 -2 -12 -5z"/>
<path d="M675 690 c-4 -6 10 -10 34 -10 23 0 41 5 41 10 0 6 -15 10 -34 10
-19 0 -38 -4 -41 -10z"/>
<path d="M765 690 c-4 -6 10 -10 34 -10 23 0 41 5 41 10 0 6 -15 10 -34 10
-19 0 -38 -4 -41 -10z"/>
<path d="M850 690 c0 -5 16 -10 35 -10 19 0 35 5 35 10 0 6 -16 10 -35 10 -19
0 -35 -4 -35 -10z"/>
<path d="M940 690 c0 -5 16 -10 35 -10 19 0 35 5 35 10 0 6 -16 10 -35 10 -19
0 -35 -4 -35 -10z"/>
<path d="M1020 690 c0 -5 16 -10 35 -10 19 0 35 5 35 10 0 6 -16 10 -35 10
-19 0 -35 -4 -35 -10z"/>
<path d="M2450 691 c-33 -9 -41 -51 -11 -51 14 0 21 -6 21 -20 0 -43 15 -17
18 30 1 28 1 50 -1 49 -1 -1 -13 -4 -27 -8z"/>
<path d="M2560 670 c0 -20 5 -30 15 -30 8 0 15 -6 15 -14 0 -8 5 -18 10 -21 6
-4 10 13 10 44 0 48 -2 51 -25 51 -21 0 -25 -5 -25 -30z"/>
<path d="M2630 680 c0 -34 1 -35 17 -32 11 2 13 -2 8 -17 -3 -10 -2 -22 3 -25
5 -3 12 11 16 32 9 57 8 62 -19 62 -18 0 -25 -5 -25 -20z"/>
<path d="M2690 669 c0 -27 2 -30 15 -19 13 11 15 8 15 -13 0 -48 15 -35 17 14
3 46 1 49 -22 49 -21 0 -25 -5 -25 -31z"/>
<path d="M2760 691 c0 -5 -3 -16 -6 -25 -4 -11 -1 -16 10 -16 9 0 16 -8 16
-19 0 -11 5 -23 12 -27 6 -4 9 -3 5 2 -3 5 -2 28 3 52 7 40 6 42 -16 42 -13 0
-24 -4 -24 -9z"/>
<path d="M2820 691 c0 -6 5 -13 11 -17 6 -3 9 -17 6 -31 -3 -16 1 -27 14 -34
16 -8 19 -6 19 9 0 11 3 34 6 51 6 29 5 31 -25 31 -17 0 -31 -4 -31 -9z"/>
<path d="M1997 683 c-10 -10 -8 -53 2 -53 5 0 12 10 14 23 l4 22 2 -22 c0 -13
5 -23 10 -23 5 0 12 -10 14 -22 2 -13 5 1 6 30 1 48 -1 52 -22 52 -13 0 -27
-3 -30 -7z"/>
<path d="M2070 660 c0 -36 26 -41 40 -7 8 17 8 13 4 -18 -4 -30 -3 -36 5 -25
6 8 11 30 11 48 0 29 -3 32 -30 32 -27 0 -30 -3 -30 -30z"/>
<path d="M2140 659 c0 -26 3 -30 23 -27 16 2 21 -2 19 -14 -1 -9 2 -19 8 -23
6 -4 10 12 10 44 0 50 -1 51 -30 51 -27 0 -30 -3 -30 -31z"/>
<path d="M2212 663 c2 -20 9 -28 23 -28 12 0 22 -9 26 -25 5 -18 7 -11 8 28 1
52 1 52 -30 52 -27 0 -30 -3 -27 -27z"/>
<path d="M2287 683 c-15 -15 -6 -42 16 -45 14 -2 21 -9 19 -20 -1 -9 2 -19 8
-23 6 -4 10 12 10 44 0 47 -2 51 -23 51 -13 0 -27 -3 -30 -7z"/>
<path d="M2356 674 c-10 -26 -7 -34 14 -34 13 0 20 -7 20 -19 0 -11 4 -22 8
-25 5 -3 10 17 11 44 1 47 0 50 -23 50 -13 0 -27 -7 -30 -16z"/>
<path d="M350 670 l-35 -7 43 -2 c23 0 42 4 42 9 0 6 -3 9 -7 9 -5 -1 -24 -5
-43 -9z"/>
<path d="M153 663 c15 -2 37 -2 50 0 12 2 0 4 -28 4 -27 0 -38 -2 -22 -4z"/>
<path d="M258 663 c12 -2 30 -2 40 0 9 3 -1 5 -23 4 -22 0 -30 -2 -17 -4z"/>
<path d="M766 662 c-2 -4 -1 -32 4 -62 5 -38 8 -45 9 -22 1 29 4 32 31 32 27
0 30 3 30 30 0 28 -3 30 -34 30 -19 0 -37 -3 -40 -8z"/>
<path d="M850 608 c0 -41 3 -58 9 -49 5 8 7 20 4 28 -3 9 3 16 15 20 12 3 23
15 25 27 4 21 4 21 6 -1 1 -25 21 -32 21 -9 0 33 -13 46 -46 46 l-34 0 0 -62z"/>
<path d="M941 613 c1 -59 2 -60 13 -10 6 23 9 26 26 17 27 -15 30 -13 30 20 0
28 -3 30 -35 30 l-35 0 1 -57z"/>
<path d="M1021 613 c1 -45 3 -51 8 -28 5 21 12 29 24 27 12 -2 17 4 18 20 1
23 1 22 9 -2 8 -24 8 -23 9 8 1 30 -1 32 -34 32 l-35 0 1 -57z"/>
<path d="M1112 640 c0 -19 2 -27 5 -17 2 9 2 25 0 35 -3 9 -5 1 -5 -18z"/>
<path d="M674 644 c3 -9 6 -34 6 -55 0 -26 4 -38 11 -33 6 3 8 16 5 29 -4 17
-1 24 15 28 12 3 18 10 14 16 -3 6 -2 11 4 11 5 0 12 -10 14 -22 3 -17 5 -14
6 10 1 31 0 32 -40 32 -33 0 -40 -3 -35 -16z"/>
<path d="M170 640 l45 -7 -37 -1 c-51 -3 -49 -22 2 -22 33 0 40 3 40 20 0 17
-6 20 -47 18 l-48 -1 45 -7z"/>
<path d="M240 593 c0 -61 10 -69 12 -9 1 33 4 36 32 37 l31 2 -35 7 -35 7 35
5 35 5 -37 1 -38 2 0 -57z"/>
<path d="M348 643 c12 -2 30 -2 40 0 9 3 -1 5 -23 4 -22 0 -30 -2 -17 -4z"/>
<path d="M410 635 c0 -11 11 -15 43 -13 l42 1 -40 5 -40 6 40 6 40 7 -42 2
c-32 1 -43 -3 -43 -14z"/>
<path d="M332 583 c1 -37 2 -40 5 -15 4 28 8 32 36 33 l32 2 -35 7 -35 7 35 5
35 5 -37 1 -38 2 2 -47z"/>
<path d="M518 623 c12 -2 32 -2 45 0 12 2 2 4 -23 4 -25 0 -35 -2 -22 -4z"/>
<path d="M415 601 c-3 -6 10 -7 32 -4 50 8 55 13 10 13 -20 0 -38 -4 -42 -9z"/>
<path d="M501 578 c2 -30 2 -30 6 -6 4 23 10 27 41 31 l37 4 -42 1 c-42 2 -43
2 -42 -30z"/>
<path d="M591 584 c0 -11 3 -14 6 -6 3 7 2 16 -1 19 -3 4 -6 -2 -5 -13z"/>
<path d="M422 560 c0 -14 2 -19 5 -12 2 6 2 18 0 25 -3 6 -5 1 -5 -13z"/>
<path d="M563 509 c-206 -5 -319 -11 -333 -19 -13 -7 -20 -8 -16 -2 7 11 -78
11 -90 0 -4 -5 -3 -8 3 -8 5 0 10 -7 10 -15 0 -8 -3 -15 -7 -15 -10 0 0 -49
11 -56 5 -3 8 0 7 6 -2 7 31 30 72 52 81 44 81 41 -2 -46 -21 -22 -38 -44 -38
-49 0 -4 -8 -6 -19 -2 -10 3 -26 3 -35 -1 -16 -6 -16 -8 0 -25 16 -18 15 -20
-20 -52 -20 -18 -36 -36 -36 -40 0 -4 15 -7 33 -7 28 0 40 10 101 85 39 47 71
85 74 85 2 0 1 -9 -3 -19 -11 -36 -13 -81 -4 -86 15 -10 31 46 30 107 -1 58
14 87 24 46 3 -13 6 -63 8 -113 l2 -90 59 -1 c61 -2 96 4 96 15 0 3 -29 4 -65
3 -64 -4 -65 -3 -65 22 0 13 4 27 9 30 10 6 6 54 -5 64 -4 4 -5 -1 -1 -10 3
-10 0 -19 -10 -22 -13 -5 -14 0 -8 31 5 21 8 45 9 54 0 14 22 17 141 22 79 4
141 11 143 17 2 5 8 10 13 10 5 0 9 -30 8 -67 0 -38 -3 -62 -6 -55 -2 6 -13
12 -24 12 -10 0 -19 7 -19 15 0 8 -4 15 -10 15 -5 0 -10 -4 -10 -9 0 -6 -15
-12 -32 -14 -32 -4 -32 -4 5 -5 l37 -2 2 -112 c1 -80 3 -98 7 -63 l6 50 40 3
c58 4 75 12 49 22 -19 7 -22 19 -26 92 -3 46 -4 86 -1 91 2 4 66 7 143 7 116
0 139 2 144 16 14 37 26 -4 26 -91 0 -85 -2 -94 -20 -100 -26 -8 -26 -25 0
-25 10 0 24 9 30 20 6 12 21 20 35 20 21 0 25 5 26 33 0 30 1 30 10 9 5 -13 7
-28 3 -33 -3 -5 7 -8 23 -8 17 1 21 3 11 6 -22 5 -24 23 -3 23 10 0 15 10 15
34 l0 35 -61 -6 -60 -5 3 38 3 39 58 3 c53 3 57 5 57 27 l0 25 -122 -2 c-68 0
-263 -5 -435 -9z m-383 -34 c0 -2 -6 -5 -13 -8 -8 -3 -14 1 -14 8 0 7 6 11 14
8 7 -3 13 -6 13 -8z m-10 -29 c0 -2 -7 -7 -16 -10 -8 -3 -12 -2 -9 4 6 10 25
14 25 6z"/>
<path d="M80 493 c-8 -2 -22 -7 -30 -9 -11 -4 -12 -7 -2 -13 10 -6 5 -12 -16
-20 -25 -11 -29 -17 -29 -52 0 -21 2 -39 4 -39 3 0 19 9 36 21 28 18 27 17 -6
-13 -20 -18 -37 -39 -37 -47 0 -10 7 -8 23 7 13 12 29 22 36 22 7 0 9 5 6 10
-3 6 2 13 12 17 25 10 48 33 32 33 -9 0 -8 4 1 15 18 22 1 18 -49 -10 -24 -14
-46 -23 -48 -21 -3 3 14 14 37 26 23 12 40 24 37 26 -3 3 -19 -2 -37 -11 -18
-9 -34 -15 -36 -12 -2 2 19 14 46 27 28 13 50 29 50 37 0 14 -5 15 -30 6z"/>
<path d="M1528 479 c-81 -4 -171 -10 -200 -13 -29 -3 -86 -5 -125 -6 l-73 0 0
-165 c0 -150 2 -165 18 -165 14 0 17 8 14 55 -3 35 0 55 7 55 10 0 14 -20 15
-82 l0 -28 85 6 c85 7 87 7 181 70 53 35 105 66 115 70 31 11 9 -7 -85 -71
l-85 -57 70 6 c39 3 105 9 147 12 l77 7 3 158 c2 102 -1 158 -7 158 -5 -1 -76
-5 -157 -10z m57 -18 c-6 -4 -71 -51 -145 -103 l-136 -95 -69 -2 c-38 -1 -73
-5 -77 -7 -4 -3 -8 -1 -8 4 0 5 26 12 58 15 69 6 98 20 252 121 63 42 119 76
124 76 6 0 6 -3 1 -9z m-405 -96 c0 -41 -4 -75 -9 -75 -4 0 -9 34 -10 75 -1
46 2 75 9 75 6 0 10 -30 10 -75z m500 -65 c0 -5 -21 -9 -47 -9 -43 1 -45 2
-18 9 44 11 65 11 65 0z"/>
<path d="M2597 453 c-4 -3 -7 -14 -7 -23 0 -13 6 -16 25 -12 30 5 36 42 7 42
-10 0 -22 -3 -25 -7z"/>
<path d="M2357 442 c-20 -2 -27 -8 -25 -20 5 -25 35 -26 48 -2 14 26 13 26
-23 22z"/>
<path d="M2460 430 c0 -15 7 -20 25 -20 18 0 25 5 25 20 0 15 -7 20 -25 20
-18 0 -25 -5 -25 -20z"/>
<path d="M2527 436 c-7 -17 1 -26 24 -26 14 0 29 18 29 36 0 11 -49 2 -53 -10z"/>
<path d="M2200 419 c0 -16 5 -20 27 -17 17 2 29 10 31 21 3 13 -3 17 -27 17
-25 0 -31 -4 -31 -21z"/>
<path d="M2270 420 c0 -15 7 -20 25 -20 18 0 25 5 25 20 0 15 -7 20 -25 20
-18 0 -25 -5 -25 -20z"/>
<path d="M1997 423 c-17 -16 -5 -33 23 -33 23 0 30 4 30 20 0 14 -7 20 -23 20
-13 0 -27 -3 -30 -7z"/>
<path d="M2060 410 c0 -16 7 -20 30 -20 23 0 30 4 30 20 0 16 -7 20 -30 20
-23 0 -30 -4 -30 -20z"/>
<path d="M370 400 c0 -5 7 -10 15 -10 8 0 15 5 15 10 0 6 -7 10 -15 10 -8 0
-15 -4 -15 -10z"/>
<path d="M1940 390 c0 -11 4 -20 8 -20 4 0 8 9 8 20 0 11 -4 20 -8 20 -4 0 -8
-9 -8 -20z"/>
<path d="M1972 390 c0 -14 2 -19 5 -12 2 6 2 18 0 25 -3 6 -5 1 -5 -13z"/>
<path d="M500 385 c-10 -12 -10 -15 3 -15 8 0 17 7 21 15 3 8 2 15 -3 15 -5 0
-14 -7 -21 -15z"/>
<path d="M155 370 c4 -6 11 -8 16 -5 14 9 11 15 -7 15 -8 0 -12 -5 -9 -10z"/>
<path d="M817 373 c-11 -10 -8 -43 3 -43 6 0 10 11 10 25 0 26 -2 29 -13 18z"/>
<path d="M850 355 c0 -14 4 -25 9 -25 4 0 6 11 3 25 -2 14 -6 25 -8 25 -2 0
-4 -11 -4 -25z"/>
<path d="M897 373 c-11 -10 -8 -43 3 -43 6 0 10 11 10 25 0 26 -2 29 -13 18z"/>
<path d="M730 351 c0 -11 4 -23 10 -26 6 -4 9 5 8 19 -3 30 -18 35 -18 7z"/>
<path d="M770 350 c0 -11 4 -20 8 -20 4 0 8 9 8 20 0 11 -4 20 -8 20 -4 0 -8
-9 -8 -20z"/>
<path d="M412 338 c4 -32 42 -32 44 0 2 20 1 20 -3 2 -5 -24 -29 -21 -27 4 1
9 -3 16 -8 16 -5 0 -8 -10 -6 -22z"/>
<path d="M77 343 c-13 -12 -7 -22 11 -17 14 5 14 3 -2 -10 -11 -9 -14 -16 -7
-16 7 0 10 -4 7 -9 -3 -5 -16 -7 -28 -3 -14 3 -19 2 -14 -6 4 -7 3 -12 -3 -12
-15 0 -41 -30 -41 -46 0 -14 2 -14 15 0 8 8 15 20 15 26 0 6 5 8 11 4 6 -3 14
-2 18 3 3 5 20 19 38 31 32 23 32 23 13 42 -22 22 -24 23 -33 13z m33 -33 c0
-5 -5 -10 -11 -10 -5 0 -7 5 -4 10 3 6 8 10 11 10 2 0 4 -4 4 -10z"/>
<path d="M2063 317 c20 -16 23 -49 5 -46 -7 1 -57 1 -110 0 -67 -1 -98 -5 -98
-12 0 -9 24 -10 86 -6 l86 6 -6 -52 c-5 -49 -5 -51 8 -23 9 21 15 25 20 15 3
-8 4 3 1 24 -3 20 -2 37 3 37 17 0 32 -27 25 -45 -4 -12 -3 -16 4 -12 6 4 14
0 17 -9 9 -23 7 -44 -4 -44 -5 0 -7 8 -3 18 3 11 0 9 -11 -6 -17 -21 -16 -24
8 -53 l26 -31 0 29 1 28 14 -25 c8 -14 14 -35 15 -48 0 -21 -3 -20 -42 15 -23
21 -50 46 -60 56 -30 29 -128 18 -128 -14 0 -11 -6 -19 -13 -19 -11 0 -254
-24 -674 -65 -59 -6 -63 -5 -63 14 0 11 -4 23 -10 26 -6 3 -10 -5 -10 -19 0
-23 -5 -26 -50 -32 -27 -4 -47 -11 -44 -16 7 -11 105 -4 304 21 85 11 202 25
260 31 58 6 124 13 148 16 l42 6 0 -41 0 -41 194 0 194 0 -54 135 c-56 139
-62 165 -42 165 19 0 -3 17 -32 24 -23 6 -23 6 -7 -7z"/>
<path d="M2218 323 c12 -2 32 -2 45 0 12 2 2 4 -23 4 -25 0 -35 -2 -22 -4z"/>
<path d="M798 253 c-33 -2 -58 -9 -58 -15 0 -9 28 -9 148 2 2 0 0 5 -3 10 -3
6 -12 9 -18 8 -7 -1 -38 -3 -69 -5z"/>
<path d="M2141 178 c63 -154 71 -168 96 -168 20 0 22 4 17 26 -4 14 -19 51
-34 82 -15 32 -33 74 -39 95 -11 31 -17 37 -41 37 l-28 0 29 -72z"/>
<path d="M2198 243 c6 -2 18 -2 25 0 6 3 1 5 -13 5 -14 0 -19 -2 -12 -5z"/>
<path d="M990 229 c0 -5 5 -7 10 -4 6 3 10 8 10 11 0 2 -4 4 -10 4 -5 0 -10
-5 -10 -11z"/>
<path d="M22 202 c-19 -23 -22 -39 -22 -114 l0 -88 218 1 c205 1 214 1 157 14
-70 15 -223 69 -277 96 -35 18 -38 23 -38 64 0 54 -9 61 -38 27z m2 -78 c3 -8
2 -12 -4 -9 -6 3 -10 10 -10 16 0 14 7 11 14 -7z m46 -23 c0 -6 -4 -13 -10
-16 -5 -3 -10 1 -10 9 0 9 5 16 10 16 6 0 10 -4 10 -9z"/>
<path d="M1045 149 c-6 -19 0 -38 9 -28 10 12 16 49 7 49 -5 0 -13 -9 -16 -21z"/>
<path d="M605 89 c-5 -6 -27 -9 -59 -5 -45 5 -48 4 -23 -6 20 -9 27 -19 27
-39 0 -22 4 -26 20 -22 13 3 20 14 20 29 0 15 6 24 15 24 8 0 15 7 15 15 0 18
-6 19 -15 4z"/>
<path d="M840 51 c-68 -5 -75 -8 -78 -28 -3 -23 -2 -23 101 -23 l105 0 -11 30
c-7 17 -18 29 -27 28 -8 -1 -49 -4 -90 -7z"/>
<path d="M1310 10 l-75 -6 88 -2 c57 -1 86 2 82 8 -3 6 -9 9 -13 8 -4 -1 -41
-4 -82 -8z"/>
<path d="M628 3 c6 -2 18 -2 25 0 6 3 1 5 -13 5 -14 0 -19 -2 -12 -5z"/>
<path d="M2288 3 c7 -3 16 -2 19 1 4 3 -2 6 -13 5 -11 0 -14 -3 -6 -6z"/>
</g>
</svg>
